<?xml version="1.0" encoding="iso-8859-1"?>
<!-- Generator: Adobe Illustrator 19.0.0, SVG Export Plug-In . SVG Version: 6.00 Build 0)  -->
<svg version="1.1" id="Layer_1" xmlns="http://www.w3.org/2000/svg" xmlns:xlink="http://www.w3.org/1999/xlink" x="0px" y="0px"
	 viewBox="0 0 512.001 512.001" style="enable-background:new 0 0 512.001 512.001;" xml:space="preserve">
<path style="fill:#E45D4C;" d="M364.066,114.13h-33.632V60.4c0-14.76-12.008-26.768-26.768-26.768h-95.329
	c-14.76,0-26.768,12.008-26.768,26.768v53.731h-33.632V60.4c0-33.305,27.096-60.4,60.4-60.4h95.329c33.305,0,60.4,27.096,60.4,60.4
	V114.13z"/>
<path style="opacity:0.1;enable-background:new    ;" d="M157.465,53.112c0-17.401,7.406-33.097,19.221-44.129
	c-17.236,10.649-28.75,29.71-28.75,51.415v53.731h33.632v-7.287h-24.103V53.112z M339.963,106.844V53.112
	c0-14.76-12.008-26.768-26.768-26.768H210.018c-13.979,0-25.483,10.773-26.662,24.452c3.869-10.029,13.604-17.166,24.98-17.166
	h95.329c14.76,0,26.768,12.008,26.768,26.768v53.731h33.632v-7.287C364.066,106.844,339.963,106.844,339.963,106.844z"/>
<path style="fill:#A4A8AB;" d="M464.876,126.98H47.126l44.201,351.261c2.428,19.291,18.832,33.76,38.274,33.76h252.799
	c19.443,0,35.846-14.469,38.274-33.76L464.876,126.98z"/>
<path style="fill:#4A5058;" d="M88.984,459.615l2.344,18.626c2.428,19.291,18.832,33.76,38.274,33.76h252.799
	c19.443,0,35.846-14.469,38.274-33.76l2.344-18.626H88.984z"/>
<path style="opacity:0.1;enable-background:new    ;" d="M464.876,126.98H47.126l44.201,351.261
	c2.428,19.291,18.831,33.76,38.274,33.76h252.799c15.343,0,28.788-9.015,34.971-22.296l0,0c-4.967,2.317-10.489,3.612-16.287,3.612
	H148.285c-19.442,0-35.846-14.469-38.274-33.76L75.747,187.272h381.542L464.876,126.98z"/>
<path style="fill:#4A5058;" d="M473.831,72.151H38.17c-12.636,0-22.879,10.244-22.879,22.879v44.929
	c0,12.635,10.243,22.879,22.879,22.879h435.662c12.635,0,22.879-10.244,22.879-22.879V95.03
	C496.71,82.394,486.468,72.151,473.831,72.151z"/>
<path style="opacity:0.2;enable-background:new    ;" d="M488.89,147.447H51.078c-11.265,0-20.397-9.132-20.397-20.397V79.97
	c0-2.367,0.359-4.65,1.018-6.803C22.2,76.076,15.291,84.909,15.291,95.36v44.266c0,12.818,10.392,23.21,23.21,23.21H473.5
	c10.451,0,19.284-6.91,22.192-16.408C493.541,147.088,491.258,147.447,488.89,147.447z"/>
<g style="opacity:0.2;">
	<path d="M256.001,430.707c-9.154,0-16.576-7.421-16.576-16.576v-181.84c0-9.154,7.421-16.576,16.576-16.576
		c9.154,0,16.576,7.421,16.576,16.576v181.84C272.577,423.285,265.155,430.707,256.001,430.707z"/>
	<path d="M157.329,430.708c-8.234,0-15.372-6.129-16.425-14.51l-22.85-181.84c-1.141-9.083,5.296-17.371,14.38-18.513
		c9.092-1.151,17.371,5.298,18.513,14.38l22.85,181.84c1.142,9.083-5.296,17.371-14.38,18.513
		C158.715,430.666,158.017,430.708,157.329,430.708z"/>
	<path d="M354.673,430.708c-0.688,0-1.386-0.043-2.087-0.132c-9.083-1.141-15.521-9.429-14.38-18.513l22.85-181.84
		c1.141-9.083,9.441-15.52,18.513-14.38c9.083,1.142,15.521,9.429,14.38,18.513l-22.85,181.84
		C370.045,424.578,362.906,430.708,354.673,430.708z"/>
</g>
<g>
</g>
<g>
</g>
<g>
</g>
<g>
</g>
<g>
</g>
<g>
</g>
<g>
</g>
<g>
</g>
<g>
</g>
<g>
</g>
<g>
</g>
<g>
</g>
<g>
</g>
<g>
</g>
<g>
</g>
</svg>
