<?xml version="1.0" encoding="iso-8859-1"?>
<!-- Generator: Adobe Illustrator 19.0.0, SVG Export Plug-In . SVG Version: 6.00 Build 0)  -->
<svg version="1.1" id="Layer_1" xmlns="http://www.w3.org/2000/svg" xmlns:xlink="http://www.w3.org/1999/xlink" x="0px" y="0px"
	 viewBox="0 0 512.001 512.001" style="enable-background:new 0 0 512.001 512.001;" xml:space="preserve">
<path style="fill:#9BC9FF;" d="M422.059,235.442c-6.657-3.172-13.592-5.847-20.757-7.986c-6.728-2.011-13.661-3.542-20.757-4.564
	c-6.782-0.973-13.709-1.489-20.757-1.489c-1.769,0-3.531,0.033-5.283,0.095c-5.232,0.192-10.394,0.664-15.474,1.393
	c-10.836,1.557-21.288,4.313-31.22,8.131c-0.199,0.077-0.396,0.161-0.595,0.238c-1.425,0.555-2.842,1.128-4.244,1.726
	c-0.318,0.137-0.635,0.281-0.952,0.421c-1.276,0.555-2.545,1.121-3.8,1.71c-0.609,0.285-1.209,0.584-1.814,0.877
	c-1.334,0.65-2.658,1.32-3.969,2.009c-0.703,0.369-1.41,0.731-2.105,1.113c-0.703,0.383-1.395,0.785-2.091,1.18
	c-0.661,0.375-1.322,0.747-1.976,1.133c-0.679,0.4-1.352,0.81-2.023,1.221c-0.666,0.408-1.33,0.818-1.99,1.236
	c-0.643,0.408-1.284,0.821-1.921,1.238c-0.696,0.455-1.387,0.922-2.074,1.389c-0.587,0.399-1.173,0.794-1.755,1.201
	c-0.83,0.584-1.648,1.182-2.466,1.781c-0.423,0.31-0.852,0.612-1.272,0.926c-1.208,0.908-2.402,1.834-3.581,2.777
	c-0.39,0.313-0.772,0.635-1.16,0.952c-0.83,0.678-1.656,1.36-2.47,2.056c-0.433,0.368-0.857,0.743-1.284,1.117
	c-0.775,0.677-1.542,1.36-2.301,2.052c-0.405,0.369-0.808,0.739-1.209,1.113c-0.805,0.753-1.601,1.517-2.391,2.285
	c-0.328,0.321-0.661,0.638-0.985,0.962c-1.046,1.041-2.078,2.094-3.091,3.165c-0.053,0.055-0.108,0.109-0.161,0.166
	c-1.114,1.18-2.206,2.38-3.28,3.596c-0.152,0.174-0.3,0.351-0.452,0.526c-0.886,1.013-1.759,2.038-2.618,3.076
	c-0.257,0.311-0.509,0.627-0.765,0.941c-0.664,0.818-1.317,1.644-1.965,2.477c-0.628,0.81-1.244,1.629-1.857,2.451
	c-0.484,0.652-0.973,1.299-1.446,1.958c-0.675,0.94-1.33,1.893-1.983,2.849c-0.381,0.558-0.772,1.107-1.146,1.67
	c-0.995,1.5-1.964,3.018-2.903,4.557c-0.26,0.428-0.506,0.865-0.764,1.297c-0.696,1.167-1.384,2.337-2.048,3.526
	c-0.324,0.58-0.635,1.169-0.952,1.753c-0.577,1.067-1.146,2.137-1.698,3.217c-0.313,0.612-0.616,1.23-0.92,1.847
	c-0.515,1.049-1.017,2.106-1.508,3.168c-0.333,0.722-0.663,1.449-0.987,2.177c-0.464,1.049-0.911,2.108-1.351,3.168
	c-0.303,0.732-0.606,1.465-0.897,2.204c-0.419,1.061-0.818,2.131-1.212,3.202c-0.289,0.789-0.584,1.576-0.861,2.37
	c-0.26,0.75-0.505,1.504-0.754,2.26c-0.321,0.976-0.639,1.953-0.941,2.938c-0.238,0.776-0.465,1.557-0.689,2.337
	c-0.257,0.895-0.509,1.789-0.75,2.69c-0.208,0.782-0.405,1.569-0.602,2.355c-0.232,0.938-0.462,1.876-0.675,2.82
	c-0.172,0.753-0.332,1.511-0.491,2.268c-0.208,0.991-0.411,1.983-0.599,2.979c-0.137,0.728-0.264,1.46-0.39,2.192
	c-0.178,1.028-0.349,2.058-0.504,3.093c-0.113,0.757-0.217,1.518-0.32,2.278c-0.127,0.944-0.249,1.887-0.357,2.837
	c-0.097,0.843-0.18,1.69-0.262,2.536c-0.084,0.861-0.165,1.721-0.232,2.586c-0.08,1.012-0.143,2.029-0.201,3.046
	c-0.046,0.796-0.097,1.591-0.13,2.393c-0.022,0.49-0.037,0.98-0.054,1.471c-0.047,1.504-0.083,3.011-0.083,4.526
	c0,1.928,0.05,3.841,0.125,5.751c0.012,0.315,0.022,0.63,0.036,0.944c0.084,1.846,0.202,3.682,0.357,5.509
	c0.025,0.299,0.053,0.596,0.08,0.894c0.172,1.903,0.369,3.798,0.614,5.679c0.001,0.014,0.003,0.029,0.006,0.043
	c0.257,1.977,0.558,3.941,0.894,5.894c0.017,0.091,0.029,0.184,0.046,0.275c0.336,1.929,0.714,3.846,1.125,5.75
	c0.028,0.125,0.054,0.25,0.082,0.375c1.298,5.914,2.953,11.697,4.947,17.322c1.261,3.554,2.656,7.043,4.176,10.466
	c0.029,0.064,0.055,0.127,0.084,0.19c0.711,1.596,1.457,3.174,2.224,4.741c0.13,0.263,0.262,0.527,0.393,0.79
	c0.761,1.528,1.54,3.043,2.352,4.54c0.008,0.012,0.014,0.025,0.021,0.036c0.924,1.699,1.887,3.372,2.877,5.029
	c0.115,0.192,0.227,0.385,0.34,0.576c0.967,1.601,1.966,3.181,2.992,4.742c0.136,0.205,0.27,0.412,0.407,0.617
	c1.048,1.576,2.12,3.132,3.227,4.663c0.098,0.136,0.199,0.27,0.296,0.405c1.161,1.596,2.348,3.172,3.57,4.717h-0.001
	c26.634,33.69,67.847,55.348,114.027,55.348c80.117,0,145.298-65.179,145.298-145.298
	C505.087,308.857,471.105,258.804,422.059,235.442z M403.819,381.38c8.106,8.106,8.106,21.247,0,29.354
	c-4.053,4.053-9.367,6.08-14.676,6.08c-5.312,0-10.625-2.027-14.676-6.082l-14.676-14.675l-14.676,14.675
	c-4.053,4.055-9.366,6.082-14.677,6.082c-5.311,0-10.625-2.027-14.676-6.08c-8.106-8.106-8.106-21.247,0-29.354l14.676-14.678
	l-14.676-14.677c-8.106-8.105-8.106-21.248,0-29.354c8.106-8.106,21.249-8.108,29.354,0l14.676,14.675l14.676-14.675
	c8.105-8.106,21.248-8.108,29.354,0c8.106,8.105,8.106,21.248,0,29.354l-14.676,14.677L403.819,381.38z"/>
<path style="fill:#D6D5D8;" d="M374.572,144.573c-0.036-0.037-0.068-0.08-0.105-0.118L236.087,6.08l137.754,137.751
	C374.095,144.064,374.328,144.325,374.572,144.573z"/>
<path style="fill:#E0E0E2;" d="M241.896,451.53c-1.106-1.532-2.181-3.087-3.227-4.663c-0.137-0.205-0.271-0.412-0.407-0.617
	c-1.025-1.561-2.024-3.14-2.992-4.742c-0.113-0.191-0.226-0.383-0.34-0.576c-0.989-1.656-1.954-3.329-2.877-5.029
	c-0.001-0.003-0.003-0.006-0.004-0.007c-0.006-0.011-0.011-0.021-0.017-0.03c-0.812-1.496-1.591-3.014-2.352-4.54
	c-0.131-0.263-0.264-0.526-0.393-0.79c-0.769-1.565-1.511-3.144-2.224-4.741c-0.028-0.062-0.055-0.126-0.084-0.19
	c-3.934-8.836-7.008-18.133-9.123-27.788c-0.028-0.125-0.054-0.25-0.082-0.375c-0.412-1.904-0.79-3.821-1.125-5.75
	c-0.017-0.091-0.029-0.184-0.046-0.275c-0.336-1.953-0.638-3.916-0.894-5.894c-0.003-0.015-0.004-0.03-0.006-0.043
	c-0.245-1.882-0.444-3.776-0.614-5.679c-0.028-0.299-0.055-0.596-0.08-0.894c-0.152-1.828-0.273-3.664-0.357-5.51
	c-0.015-0.314-0.025-0.628-0.036-0.944c-0.075-1.91-0.125-3.825-0.125-5.751c0-1.515,0.033-3.022,0.083-4.526
	c0.015-0.49,0.032-0.98,0.054-1.471c0.012-0.306,0.018-0.612,0.032-0.917H110.706c-11.463,0-20.757-9.294-20.757-20.757
	s9.294-20.757,20.757-20.757H222.8c0.185-0.522,0.394-1.03,0.585-1.548c0.393-1.071,0.793-2.142,1.212-3.202
	c0.291-0.739,0.594-1.471,0.897-2.204c0.439-1.063,0.887-2.119,1.351-3.167c0.322-0.728,0.653-1.454,0.987-2.177
	c0.237-0.512,0.455-1.034,0.699-1.542c0.26-0.548,0.544-1.082,0.81-1.626c0.304-0.617,0.607-1.236,0.92-1.847
	c0.551-1.081,1.121-2.152,1.698-3.217c0.317-0.584,0.627-1.173,0.952-1.753c0.664-1.187,1.353-2.359,2.048-3.526
	c0.257-0.432,0.502-0.869,0.764-1.297c0.94-1.537,1.908-3.057,2.903-4.557c0.372-0.563,0.765-1.113,1.146-1.67
	c0.653-0.955,1.306-1.91,1.983-2.849c0.473-0.659,0.962-1.306,1.446-1.958c0.612-0.822,1.227-1.641,1.857-2.451
	c0.238-0.304,0.461-0.62,0.7-0.923H110.706c-11.463,0-20.757-9.294-20.757-20.757c0-11.463,9.294-20.757,20.757-20.757h187.233
	c0.093-0.044,0.19-0.084,0.282-0.127c1.255-0.591,2.524-1.155,3.8-1.71c0.318-0.138,0.634-0.284,0.953-0.421
	c1.403-0.599,2.819-1.171,4.244-1.726c0.198-0.077,0.396-0.161,0.595-0.238c14.587-5.609,30.294-8.935,46.692-9.525
	c1.753-0.064,3.515-0.095,5.283-0.095c7.048,0,13.975,0.515,20.757,1.489v-63.225c-0.286,11.214-9.446,20.221-20.729,20.221
	c-0.011,0-0.018,0-0.028,0h-20.757H221.409c-11.463,0-20.757-9.294-20.757-20.757V41.514V20.757c0-8.394,5.056-15.963,12.814-19.175
	c2.679-1.111,5.502-1.611,8.29-1.564C221.64,0.015,221.526,0,221.409,0H27.679C16.215,0,6.922,9.294,6.922,20.757v415.139
	c0,11.463,9.294,20.757,20.757,20.757h218.083c-1.222-1.546-2.408-3.122-3.569-4.717C242.094,451.8,241.995,451.665,241.896,451.53z
	"/>
<g>
	<path style="fill:#57565C;" d="M110.706,318.273c-11.463,0-20.757,9.294-20.757,20.757s9.294,20.757,20.757,20.757h103.953
		c0.024-0.495,0.069-0.982,0.097-1.475c0.058-1.017,0.119-2.034,0.201-3.046c0.068-0.865,0.149-1.726,0.232-2.586
		c0.083-0.847,0.165-1.694,0.262-2.536c0.108-0.949,0.23-1.893,0.357-2.837c0.061-0.452,0.107-0.911,0.172-1.362
		c0.044-0.307,0.102-0.609,0.148-0.916c0.155-1.035,0.325-2.065,0.504-3.093c0.126-0.732,0.253-1.464,0.39-2.192
		c0.188-0.998,0.39-1.99,0.599-2.979c0.159-0.758,0.32-1.514,0.491-2.268c0.214-0.945,0.443-1.882,0.675-2.82
		c0.195-0.786,0.393-1.573,0.602-2.355c0.241-0.901,0.494-1.796,0.75-2.69c0.138-0.479,0.26-0.965,0.403-1.442
		c0.089-0.302,0.195-0.596,0.286-0.895c0.302-0.985,0.619-1.962,0.941-2.938c0.249-0.756,0.494-1.51,0.754-2.26
		c0.094-0.271,0.179-0.549,0.275-0.822H110.706V318.273z"/>
	<path style="fill:#57565C;" d="M110.706,235.246c-11.463,0-20.757,9.294-20.757,20.757c0,11.463,9.294,20.757,20.757,20.757
		h135.048c0.414-0.524,0.843-1.036,1.265-1.554c0.256-0.314,0.508-0.63,0.765-0.941c0.859-1.038,1.733-2.062,2.618-3.076
		c0.152-0.174,0.3-0.351,0.452-0.526c1.074-1.216,2.167-2.416,3.28-3.596c0.053-0.057,0.108-0.111,0.161-0.166
		c1.013-1.071,2.047-2.125,3.091-3.165c0.324-0.324,0.657-0.641,0.985-0.962c0.789-0.769,1.584-1.532,2.391-2.285
		c0.401-0.374,0.804-0.743,1.209-1.113c0.76-0.693,1.528-1.377,2.301-2.052c0.426-0.374,0.851-0.749,1.284-1.117
		c0.814-0.696,1.641-1.38,2.47-2.056c0.387-0.317,0.769-0.639,1.16-0.952c1.179-0.944,2.372-1.871,3.581-2.777
		c0.419-0.316,0.848-0.616,1.272-0.926c0.818-0.601,1.637-1.197,2.466-1.781c0.581-0.407,1.168-0.803,1.755-1.201
		c0.688-0.468,1.378-0.934,2.074-1.389c0.637-0.419,1.277-0.83,1.921-1.238c0.66-0.418,1.323-0.828,1.99-1.236
		c0.671-0.411,1.344-0.821,2.023-1.221c0.655-0.385,1.315-0.76,1.976-1.133c0.696-0.396,1.388-0.797,2.091-1.182
		c0.696-0.381,1.403-0.743,2.105-1.113c1.31-0.689,2.633-1.359,3.969-2.009c0.511-0.249,1.016-0.506,1.53-0.75H110.706V235.246z"/>
</g>
<path style="fill:#C6C5CA;" d="M200.652,20.757v20.757v117.619c0,11.463,9.294,20.757,20.757,20.757h117.622h20.757
	c0.01,0,0.017,0,0.028,0c11.283,0,20.443-9.008,20.729-20.221c0.004-0.18,0.028-0.356,0.028-0.536c0-4.966-1.763-9.507-4.672-13.08
	c-0.032-0.04-0.066-0.083-0.1-0.125c-0.386-0.469-0.8-0.92-1.23-1.356c-0.244-0.248-0.476-0.508-0.731-0.742L236.086,6.079
	c-0.441-0.441-0.908-0.855-1.384-1.252c-0.133-0.111-0.268-0.214-0.403-0.322c-0.368-0.292-0.743-0.57-1.128-0.836
	c-0.14-0.095-0.277-0.194-0.419-0.285c-0.5-0.327-1.01-0.637-1.535-0.919c-0.014-0.007-0.028-0.017-0.04-0.024
	c-0.544-0.291-1.102-0.548-1.667-0.789c-0.152-0.065-0.31-0.123-0.465-0.184c-0.423-0.167-0.851-0.321-1.286-0.461
	c-0.176-0.055-0.35-0.113-0.527-0.166c-0.541-0.158-1.088-0.299-1.643-0.412c-0.044-0.01-0.087-0.024-0.131-0.032
	c-0.588-0.118-1.183-0.201-1.784-0.266c-0.187-0.021-0.375-0.033-0.562-0.05c-0.45-0.036-0.902-0.06-1.356-0.066
	c-2.79-0.047-5.611,0.452-8.29,1.564C205.709,4.793,200.652,12.363,200.652,20.757z"/>
<path style="fill:#1A6FB0;" d="M389.143,366.702l14.676-14.676c8.106-8.105,8.106-21.248,0-29.354
	c-8.105-8.108-21.248-8.106-29.354,0l-14.676,14.675l-14.677-14.675c-8.103-8.108-21.247-8.106-29.354,0
	c-8.106,8.105-8.106,21.248,0,29.354l14.676,14.676l-14.676,14.678c-8.106,8.106-8.106,21.247,0,29.354
	c4.053,4.053,9.366,6.08,14.676,6.08c5.311,0,10.625-2.027,14.676-6.082l14.676-14.675l14.676,14.675
	c4.053,4.055,9.366,6.082,14.676,6.082c5.311,0,10.625-2.027,14.676-6.08c8.106-8.106,8.106-21.247,0-29.354L389.143,366.702z"/>
<path style="fill:#57A4FF;" d="M345.112,410.733c-4.053,4.055-9.366,6.082-14.676,6.082c-5.311,0-10.625-2.027-14.677-6.08
	c-8.106-8.106-8.106-21.247,0-29.354l14.677-14.678l-14.677-14.676c-8.106-8.105-8.106-21.248,0-29.354
	c8.106-8.106,21.25-8.108,29.354,0l14.677,14.675V221.404c-1.769,0-3.531,0.033-5.283,0.095c-5.232,0.192-10.394,0.664-15.474,1.393
	c-10.836,1.557-21.288,4.313-31.218,8.131c-0.199,0.077-0.396,0.161-0.595,0.238c-1.425,0.555-2.842,1.126-4.244,1.726
	c-0.318,0.137-0.635,0.281-0.953,0.421c-1.276,0.555-2.545,1.121-3.8,1.71c-0.609,0.285-1.209,0.584-1.814,0.877
	c-1.334,0.65-2.658,1.32-3.969,2.009c-0.703,0.369-1.41,0.731-2.105,1.113c-0.703,0.383-1.395,0.785-2.091,1.182
	c-0.661,0.375-1.322,0.747-1.976,1.133c-0.679,0.4-1.352,0.81-2.023,1.221c-0.666,0.408-1.33,0.818-1.99,1.236
	c-0.643,0.408-1.284,0.821-1.921,1.238c-0.696,0.455-1.387,0.922-2.074,1.389c-0.587,0.399-1.173,0.794-1.755,1.201
	c-0.83,0.584-1.648,1.182-2.466,1.781c-0.423,0.31-0.852,0.612-1.272,0.926c-1.208,0.908-2.402,1.834-3.581,2.777
	c-0.39,0.311-0.772,0.635-1.16,0.952c-0.83,0.678-1.656,1.36-2.47,2.056c-0.433,0.368-0.857,0.743-1.284,1.117
	c-0.775,0.677-1.542,1.36-2.301,2.052c-0.405,0.369-0.808,0.739-1.209,1.113c-0.805,0.753-1.601,1.517-2.391,2.285
	c-0.328,0.321-0.66,0.638-0.985,0.962c-1.046,1.041-2.078,2.094-3.091,3.165c-0.053,0.055-0.108,0.109-0.161,0.166
	c-1.114,1.18-2.206,2.38-3.28,3.596c-0.152,0.174-0.3,0.351-0.452,0.526c-0.886,1.013-1.757,2.038-2.618,3.076
	c-0.257,0.311-0.509,0.627-0.765,0.941c-0.664,0.818-1.317,1.645-1.965,2.477c-0.628,0.81-1.244,1.629-1.857,2.451
	c-0.484,0.652-0.973,1.299-1.446,1.958c-0.675,0.94-1.33,1.893-1.983,2.849c-0.381,0.558-0.772,1.107-1.146,1.67
	c-0.995,1.5-1.964,3.018-2.903,4.557c-0.262,0.428-0.506,0.865-0.764,1.297c-0.696,1.167-1.384,2.337-2.048,3.526
	c-0.324,0.58-0.635,1.169-0.952,1.753c-0.577,1.066-1.146,2.137-1.698,3.217c-0.313,0.612-0.616,1.23-0.92,1.847
	c-0.515,1.049-1.017,2.105-1.508,3.168c-0.333,0.722-0.664,1.449-0.987,2.177c-0.464,1.049-0.911,2.106-1.351,3.167
	c-0.303,0.732-0.606,1.465-0.897,2.204c-0.419,1.061-0.818,2.131-1.212,3.202c-0.289,0.789-0.584,1.576-0.861,2.37
	c-0.26,0.75-0.505,1.504-0.754,2.26c-0.321,0.976-0.639,1.953-0.941,2.938c-0.238,0.776-0.465,1.557-0.689,2.337
	c-0.257,0.894-0.509,1.789-0.75,2.69c-0.208,0.782-0.405,1.569-0.602,2.355c-0.232,0.938-0.462,1.876-0.675,2.82
	c-0.172,0.753-0.332,1.511-0.491,2.268c-0.208,0.991-0.411,1.983-0.599,2.979c-0.137,0.728-0.264,1.46-0.39,2.192
	c-0.179,1.028-0.349,2.058-0.504,3.093c-0.113,0.757-0.217,1.518-0.321,2.278c-0.127,0.944-0.249,1.888-0.357,2.837
	c-0.097,0.843-0.18,1.69-0.262,2.536c-0.084,0.861-0.165,1.721-0.232,2.586c-0.08,1.012-0.143,2.029-0.201,3.046
	c-0.046,0.796-0.097,1.591-0.13,2.393c-0.022,0.49-0.037,0.98-0.054,1.471c-0.047,1.504-0.083,3.011-0.083,4.526
	c0,1.928,0.05,3.841,0.125,5.751c0.012,0.315,0.022,0.63,0.036,0.944c0.084,1.846,0.202,3.682,0.357,5.51
	c0.025,0.299,0.053,0.596,0.08,0.894c0.172,1.903,0.369,3.798,0.614,5.679c0.001,0.014,0.003,0.029,0.006,0.043
	c0.257,1.977,0.558,3.941,0.894,5.894c0.017,0.091,0.029,0.184,0.046,0.275c0.336,1.93,0.714,3.846,1.125,5.75
	c0.028,0.125,0.054,0.25,0.082,0.375c1.298,5.914,2.953,11.697,4.947,17.322c1.261,3.554,2.656,7.044,4.176,10.466
	c0.028,0.064,0.055,0.127,0.084,0.19c0.711,1.596,1.457,3.174,2.224,4.741c0.13,0.264,0.262,0.527,0.393,0.79
	c0.761,1.526,1.54,3.043,2.352,4.54c0.008,0.012,0.014,0.025,0.021,0.036c0.924,1.699,1.887,3.372,2.877,5.029
	c0.115,0.192,0.227,0.385,0.34,0.576c0.967,1.601,1.966,3.181,2.992,4.742c0.136,0.205,0.27,0.412,0.407,0.617
	c1.048,1.576,2.12,3.132,3.227,4.663c0.098,0.136,0.199,0.27,0.296,0.405c1.161,1.596,2.348,3.172,3.57,4.717h-0.001
	c26.634,33.69,67.847,55.348,114.027,55.348V396.059L345.112,410.733z"/>
<g>
	<path style="fill:#5082F6;" d="M235.271,441.507c0.967,1.602,1.966,3.181,2.992,4.742
		C237.236,444.687,236.238,443.108,235.271,441.507z"/>
	<path style="fill:#5082F6;" d="M227.831,305.973c0.49-1.063,0.994-2.119,1.508-3.168c-0.266,0.544-0.549,1.078-0.81,1.626
		C228.287,304.939,228.068,305.461,227.831,305.973z"/>
	<path style="fill:#5082F6;" d="M238.669,446.866c1.046,1.576,2.121,3.132,3.227,4.663
		C240.789,449.996,239.717,448.441,238.669,446.866z"/>
	<path style="fill:#5082F6;" d="M232.052,435.903c0.923,1.699,1.887,3.372,2.877,5.029
		C233.941,439.273,232.976,437.6,232.052,435.903z"/>
	<path style="fill:#5082F6;" d="M229.68,431.325c0.761,1.526,1.54,3.044,2.352,4.54C231.22,434.368,230.44,432.853,229.68,431.325z"
		/>
	<path style="fill:#5082F6;" d="M222.803,415.139c-1.994-5.625-3.649-11.407-4.947-17.322c2.114,9.655,5.189,18.952,9.123,27.788
		C225.458,422.182,224.063,418.692,222.803,415.139z"/>
	<path style="fill:#5082F6;" d="M216.649,391.693c0.335,1.93,0.714,3.846,1.125,5.75
		C217.362,395.539,216.985,393.622,216.649,391.693z"/>
	<path style="fill:#5082F6;" d="M227.062,425.794c0.714,1.596,1.456,3.176,2.224,4.741
		C228.519,428.968,227.773,427.389,227.062,425.794z"/>
	<path style="fill:#5082F6;" d="M215.708,385.524c0.257,1.977,0.558,3.941,0.894,5.894
		C216.266,389.464,215.964,387.5,215.708,385.524z"/>
	<path style="fill:#5082F6;" d="M234.957,292.463c-0.696,1.167-1.384,2.337-2.048,3.526
		C233.573,294.8,234.261,293.628,234.957,292.463z"/>
	<path style="fill:#5082F6;" d="M238.624,286.609c-0.995,1.5-1.964,3.019-2.903,4.557
		C236.66,289.628,237.629,288.109,238.624,286.609z"/>
	<path style="fill:#5082F6;" d="M231.957,297.741c-0.577,1.066-1.146,2.137-1.698,3.217
		C230.811,299.877,231.38,298.808,231.957,297.741z"/>
	<path style="fill:#5082F6;" d="M241.751,282.091c-0.675,0.94-1.33,1.893-1.983,2.849
		C240.421,283.984,241.076,283.03,241.751,282.091z"/>
	<path style="fill:#5082F6;" d="M245.054,277.683c-0.63,0.81-1.244,1.629-1.857,2.451
		C243.809,279.311,244.426,278.492,245.054,277.683z"/>
	<path style="fill:#5082F6;" d="M242.192,451.935c1.161,1.596,2.347,3.172,3.569,4.717h0.001
		C244.541,455.107,243.352,453.531,242.192,451.935z"/>
	<path style="fill:#5082F6;" d="M224.598,313.521c-0.419,1.061-0.819,2.131-1.212,3.202
		C223.78,315.652,224.178,314.583,224.598,313.521z"/>
	<path style="fill:#5082F6;" d="M226.845,308.151c-0.464,1.049-0.911,2.105-1.351,3.167
		C225.933,310.257,226.381,309.198,226.845,308.151z"/>
	<path style="fill:#5082F6;" d="M307.218,231.262c-1.425,0.555-2.842,1.126-4.244,1.726
		C304.376,232.388,305.793,231.817,307.218,231.262z"/>
	<path style="fill:#5082F6;" d="M214.651,373.397c0.084,1.846,0.203,3.681,0.357,5.51
		C214.854,377.079,214.735,375.243,214.651,373.397z"/>
	<path style="fill:#5082F6;" d="M214.627,360.705c-0.022,0.49-0.039,0.98-0.054,1.471
		C214.589,361.684,214.605,361.194,214.627,360.705z"/>
	<path style="fill:#5082F6;" d="M339.032,222.893c5.08-0.729,10.24-1.201,15.474-1.393c-16.398,0.589-32.105,3.916-46.692,9.525
		C317.743,227.206,328.195,224.45,339.032,222.893z"/>
	<path style="fill:#5082F6;" d="M302.021,233.408c-1.276,0.555-2.545,1.121-3.8,1.71
		C299.476,234.528,300.745,233.963,302.021,233.408z"/>
	<path style="fill:#5082F6;" d="M214.49,366.702c0,1.928,0.05,3.841,0.125,5.751C214.54,370.543,214.49,368.63,214.49,366.702z"/>
	<path style="fill:#5082F6;" d="M215.088,379.801c0.17,1.903,0.371,3.797,0.614,5.679
		C215.456,383.599,215.26,381.704,215.088,379.801z"/>
	<path style="fill:#5082F6;" d="M214.957,355.266c-0.082,1.012-0.143,2.029-0.201,3.046
		C214.814,357.295,214.876,356.279,214.957,355.266z"/>
	<path style="fill:#5082F6;" d="M215.808,347.307c0.102-0.761,0.208-1.522,0.321-2.278c-0.046,0.307-0.104,0.609-0.148,0.916
		C215.914,346.396,215.869,346.854,215.808,347.307z"/>
	<path style="fill:#5082F6;" d="M222.525,319.095c-0.26,0.75-0.505,1.504-0.754,2.26C222.018,320.6,222.265,319.845,222.525,319.095
		z"/>
	<path style="fill:#5082F6;" d="M220.14,326.63c0.224-0.78,0.451-1.562,0.689-2.337c-0.091,0.3-0.198,0.595-0.286,0.895
		C220.401,325.666,220.279,326.151,220.14,326.63z"/>
	<path style="fill:#5082F6;" d="M217.023,339.744c-0.137,0.728-0.264,1.46-0.39,2.192
		C216.758,341.203,216.886,340.472,217.023,339.744z"/>
	<path style="fill:#5082F6;" d="M218.113,334.497c-0.172,0.754-0.332,1.51-0.491,2.268
		C217.781,336.007,217.942,335.248,218.113,334.497z"/>
	<path style="fill:#5082F6;" d="M215.451,350.143c-0.097,0.843-0.18,1.69-0.262,2.536
		C215.272,351.833,215.354,350.988,215.451,350.143z"/>
	<path style="fill:#5082F6;" d="M219.39,329.32c-0.208,0.782-0.407,1.569-0.602,2.355
		C218.985,330.889,219.183,330.103,219.39,329.32z"/>
	<path style="fill:#5082F6;" d="M250.854,270.664c-0.152,0.174-0.3,0.352-0.452,0.526
		C250.555,271.016,250.701,270.838,250.854,270.664z"/>
	<path style="fill:#5082F6;" d="M257.387,263.737c0.324-0.324,0.657-0.641,0.985-0.962
		C258.044,263.096,257.71,263.412,257.387,263.737z"/>
	<path style="fill:#5082F6;" d="M254.295,266.902c-0.053,0.055-0.108,0.109-0.161,0.166
		C254.187,267.011,254.243,266.957,254.295,266.902z"/>
	<path style="fill:#5082F6;" d="M290.333,239.118c-0.703,0.383-1.395,0.785-2.091,1.182
		C288.938,239.902,289.63,239.501,290.333,239.118z"/>
	<path style="fill:#5082F6;" d="M296.407,235.996c-1.335,0.65-2.658,1.32-3.969,2.009
		C293.748,237.316,295.073,236.646,296.407,235.996z"/>
	<path style="fill:#5082F6;" d="M247.784,274.265c-0.257,0.311-0.509,0.627-0.765,0.941
		C247.274,274.892,247.527,274.576,247.784,274.265z"/>
	<path style="fill:#5082F6;" d="M261.971,259.376c-0.405,0.369-0.808,0.739-1.209,1.113
		C261.163,260.117,261.566,259.746,261.971,259.376z"/>
	<path style="fill:#5082F6;" d="M282.255,243.888c-0.643,0.408-1.284,0.819-1.921,1.238
		C280.97,244.708,281.611,244.296,282.255,243.888z"/>
	<path style="fill:#5082F6;" d="M278.26,246.516c-0.587,0.399-1.173,0.794-1.755,1.201
		C277.086,247.31,277.673,246.914,278.26,246.516z"/>
	<path style="fill:#5082F6;" d="M274.039,249.498c-0.423,0.31-0.852,0.61-1.272,0.926
		C273.187,250.109,273.617,249.806,274.039,249.498z"/>
	<path style="fill:#5082F6;" d="M286.266,241.433c-0.679,0.4-1.352,0.81-2.023,1.221
		C284.916,242.242,285.587,241.833,286.266,241.433z"/>
	<path style="fill:#5082F6;" d="M265.556,256.208c-0.433,0.368-0.858,0.743-1.284,1.117
		C264.7,256.951,265.125,256.576,265.556,256.208z"/>
	<path style="fill:#5082F6;" d="M269.186,253.201c-0.39,0.311-0.772,0.635-1.16,0.952
		C268.415,253.834,268.796,253.512,269.186,253.201z"/>
</g>
<g>
</g>
<g>
</g>
<g>
</g>
<g>
</g>
<g>
</g>
<g>
</g>
<g>
</g>
<g>
</g>
<g>
</g>
<g>
</g>
<g>
</g>
<g>
</g>
<g>
</g>
<g>
</g>
<g>
</g>
</svg>
