<?xml version="1.0" encoding="iso-8859-1"?>
<!-- Generator: Adobe Illustrator 19.0.0, SVG Export Plug-In . SVG Version: 6.00 Build 0)  -->
<svg version="1.1" id="Capa_1" xmlns="http://www.w3.org/2000/svg" xmlns:xlink="http://www.w3.org/1999/xlink" x="0px" y="0px"
	 viewBox="0 0 512 512" style="enable-background:new 0 0 512 512;" xml:space="preserve">
<rect x="77.64" y="121.55" style="fill:#D9D9DB;" width="356.72" height="390.45"/>
<g>
	<rect x="256.1" y="121.55" style="fill:#AEADB3;" width="178.26" height="390.45"/>
	<rect x="169.09" y="220.19" style="fill:#AEADB3;" width="30" height="193.17"/>
	<rect x="241" y="220.19" style="fill:#AEADB3;" width="30" height="193.17"/>
</g>
<g>
	<rect x="312.91" y="220.19" style="fill:#8B8992;" width="30" height="193.17"/>
	<rect x="256.1" y="220.19" style="fill:#8B8992;" width="14.9" height="193.17"/>
</g>
<g>
	<polygon style="fill:#AEADB3;" points="320.89,0 320.89,71.21 290.89,71.21 290.89,30 221.11,30 221.11,71.21 191.11,71.21 
		191.11,0 	"/>
	<rect x="45.5" y="56.21" style="fill:#AEADB3;" width="421" height="95.34"/>
</g>
<polygon style="fill:#8B8992;" points="320.89,56.21 320.89,0 256.1,0 256.1,30 290.89,30 290.89,56.21 256.1,56.21 256.1,151.55 
	466.5,151.55 466.5,56.21 "/>
<g>
</g>
<g>
</g>
<g>
</g>
<g>
</g>
<g>
</g>
<g>
</g>
<g>
</g>
<g>
</g>
<g>
</g>
<g>
</g>
<g>
</g>
<g>
</g>
<g>
</g>
<g>
</g>
<g>
</g>
</svg>
