<?xml version="1.0" encoding="iso-8859-1"?>
<!-- Generator: Adobe Illustrator 19.0.0, SVG Export Plug-In . SVG Version: 6.00 Build 0)  -->
<svg version="1.1" id="Layer_1" xmlns="http://www.w3.org/2000/svg" xmlns:xlink="http://www.w3.org/1999/xlink" x="0px" y="0px"
	 viewBox="0 0 512.001 512.001" style="enable-background:new 0 0 512.001 512.001;" xml:space="preserve">
<path style="fill:#F4B2B0;" d="M257.776,282.774l170.406-125.631c5.192-3.829,5.192-11.59,0-15.418L257.776,16.093
	c-6.323-4.663-15.261-0.148-15.261,7.708v251.264C242.516,282.922,251.453,287.437,257.776,282.774z"/>
<path style="fill:#B3404A;" d="M454.754,284.834H362.83c-7.846,0-14.206,6.36-14.206,14.206c0,51.073-41.551,92.624-92.624,92.624
	s-92.624-41.551-92.624-92.624c0-7.846-6.36-14.206-14.206-14.206H71.994c6.575-85.91,72.238-155.544,156.316-168.252v158.484
	c0,13.122,10.685,23.8,23.82,23.801h0.001c5.076,0,9.944-1.611,14.076-4.658l170.407-125.631c6.055-4.465,9.67-11.622,9.67-19.145
	s-3.616-14.679-9.67-19.143L266.207,4.657C262.074,1.61,257.207,0,252.131,0c-13.135,0-23.821,10.678-23.821,23.801v64.082
	C123.918,101.499,43.04,190.996,43.04,299.04c0,117.427,95.534,212.961,212.961,212.961s212.961-95.534,212.961-212.961
	C468.96,291.194,462.6,284.834,454.754,284.834z M256.721,32.965l157.978,116.468L256.721,265.901V32.965z M256.001,483.587
	c-96.977,0-176.725-75.197-184.007-170.342h63.8c7.056,60.069,58.275,106.831,120.207,106.831s113.151-46.763,120.207-106.831h63.8
	C432.725,408.39,352.978,483.587,256.001,483.587z"/>
<g>
</g>
<g>
</g>
<g>
</g>
<g>
</g>
<g>
</g>
<g>
</g>
<g>
</g>
<g>
</g>
<g>
</g>
<g>
</g>
<g>
</g>
<g>
</g>
<g>
</g>
<g>
</g>
<g>
</g>
</svg>
